<svg xmlns="http://www.w3.org/2000/svg" xmlns:xlink="http://www.w3.org/1999/xlink" aria-hidden="true" role="img" class="iconify iconify--logos" width="31.88" height="32" preserveAspectRatio="xMidYMid meet" viewBox="0 0 256 257"><defs><linearGradient id="IconifyId1813088fe1fbc01fb466" x1="-.828%" x2="57.636%" y1="7.652%" y2="78.411%"><stop offset="0%" stop-color="#41D1FF"></stop><stop offset="100%" stop-color="#BD34FE"></stop></linearGradient><linearGradient id="IconifyId1813088fe1fbc01fb467" x1="43.376%" x2="50.316%" y1="2.242%" y2="89.03%"><stop offset="0%" stop-color="#FFEA83"></stop><stop offset="8.333%" stop-color="#FFDD35"></stop><stop offset="100%" stop-color="#FFA800"></stop></linearGradient></defs><path fill="url(#IconifyId1813088fe1fbc01fb466)" d="M255.153 37.938L134.897 252.976c-2.483 4.44-8.862 4.466-11.382.048L.875 37.958c-2.746-4.414 2.636-9.866 6.827-6.635l130.229 96.588c4.245 3.15 10.33.603 10.33-5.026V12.48c0-6.643 8.537-9.167 13.24-4.927l102.408 72.553c4.758 4.37 2.07 12.832-4.705 12.832h-55.347c-5.63 0-9.298 5.982-6.527 11.038l62.28 105.39c2.73 4.625 8.783 5.3 12.25 1.344z"></path><path fill="url(#IconifyId1813088fe1fbc01fb467)" d="M226.508 165.384c0 5.687-4.625 10.312-10.312 10.312H39.813c-5.687 0-10.312-4.625-10.312-10.312v-73.77c0-5.686 4.625-10.312 10.312-10.312H216.196c5.687 0 10.312 4.626 10.312 10.312v73.77Z"></path></svg>

